<?xml version="1.0" encoding="utf-8"?><!DOCTYPE svg PUBLIC "-//W3C//DTD SVG 1.1//EN" "http://www.w3.org/Graphics/SVG/1.1/DTD/svg11.dtd"><svg xmlns="http://www.w3.org/2000/svg" xmlns:xlink="http://www.w3.org/1999/xlink"><symbol viewBox="0 0 180.29 125.5" id="company" xmlns="http://www.w3.org/2000/svg"><path fill="#CF171B" d="M180.04 120.56v4.69H.25v-4.69h14.22V62.09l34.69-12.53v-31.9L103.28.25l29.14 17.8v62.77c-1.061 2.17-1.66 4.61-1.66 7.19s.6 5.02 1.66 7.189v25.36h12.79v-16.3c.62.069 1.26.109 1.91.109.95 0 1.87-.08 2.77-.239v16.43h30.15zm-52.311 0V20.68L105.32 6.98v113.58h22.409zm-27.099 0V6.02L53.85 21.07h-.01l.01 99.49h46.78zm-51.47 0V54.55l-30 10.831v55.18h30z"/><path fill="#F8CDCD" d="M147.12 71.64c9.04 0 16.359 7.33 16.359 16.37 0 8.09-5.87 14.81-13.59 16.12v-6.59h-4.68v6.721c-5.63-.66-10.39-4.17-12.79-9.061V80.82c2.661-5.44 8.251-9.18 14.701-9.18z"/><path fill="#CF171B" d="M149.89 97.54v6.591c-.899.159-1.819.239-2.77.239-.65 0-1.29-.04-1.91-.109V97.54h4.68z"/><path fill="#CF171B" d="M136.66 70.44l-.21.13-.311-.51v-4.68l.141-.07a25.055 25.055 0 0 1 11.26-2.66h.02c6.771 0 13.141 2.64 17.931 7.43s7.43 11.16 7.43 17.94c0 5.36-1.65 10.47-4.76 14.8a25.257 25.257 0 0 1-12.15 9.12l-.24.09-1.56-4.42.24-.08a20.635 20.635 0 0 0 9.899-7.45c2.54-3.52 3.88-7.689 3.88-12.06 0-5.52-2.149-10.71-6.05-14.62a20.559 20.559 0 0 0-14.63-6.06c-3.861 0-7.63 1.07-10.89 3.1zM132.42 80.82V95.2c-1.061-2.17-1.66-4.609-1.66-7.189s.599-5.021 1.66-7.191z"/><path fill="#FFF" d="M127.729 20.68v99.88H105.32V6.98zM100.63 6.02v114.54H53.85V21.07l46.78-15.05zm-7.39 54.5v-7l-32 10v7l32-10zm0-16v-7l-32 10v7l32-10zm0-16v-7l-32 10v7l32-10z"/><path fill="#F8CDCD" d="M93.24 53.52v7l-32 10v-7zM93.24 37.52v7l-32 10v-7zM93.24 21.52v7l-32 10v-7z"/><path fill="#CF171B" d="M49.16 54.55v66.01h-30V65.38z"/></symbol><symbol viewBox="0 0 140.594 138.59" id="csr" xmlns="http://www.w3.org/2000/svg"><path fill="#F8CDCD" d="M47.43 20.836c9.124 2.286 16.661 2.38 21.415 8.925 0 0 1.785-6.546 2.976-9.521 0 0-10.672-20.903-25.58-20.225C33.15.611 33.15 17.266 47.43 20.836"/><path fill="#CF171B" d="M38.5 61.186c3.526-.688 7.499-1.099 12.082-1.099H84.42c7.773 0 14.104 6.328 14.104 14.107a13.99 13.99 0 0 1-.688 4.347c4.291-2.854 8.787-5.864 12.556-8.429-3.554-19.972-15.763-30.225-35.8-31.048.324-5.686 1.294-11.135 3.773-12.278 7.735-3.57 22.016-2.975 31.529-11.305 9.516-8.331-5.943-22.606-24.989-8.325-10.518 7.884-13.944 21.393-14.914 31.91-20.263.873-29.045 14.936-31.491 22.12"/><path fill="#FFF" d="M1.889 136.701l26.793-22.258a4.034 4.034 0 0 1 3.316-.895l40.461 7.354a10.706 10.706 0 0 0 8.076-1.79s51.635-35.908 55.452-39.084c3.632-3.333 3.593-8.171.254-11.809-3.338-3.641-9.559-2.865-13.718.211-3.802 3.168-29.79 20.248-29.79 20.248H61.149l-.099.049a3.02 3.02 0 0 1-2.915-3.112 3.02 3.02 0 0 1 3.113-2.91l-.1-.057H84.42c4.672 0 8.462-3.785 8.462-8.454a8.463 8.463 0 0 0-8.462-8.466H50.583c-21.156 0-27.855 8.818-35.261 16.218L1.889 93.681"/><path fill="#CF171B" d="M1.891 138.59a1.888 1.888 0 0 1-1.209-3.343l26.792-22.258a5.886 5.886 0 0 1 4.858-1.303l40.465 7.356a8.766 8.766 0 0 0 6.651-1.476c.522-.364 51.308-35.688 55.296-38.963 2.733-2.539 2.778-6.195.104-9.108-2.633-2.87-7.831-2.015-11.162.425-3.988 3.289-28.854 19.639-29.915 20.336a1.886 1.886 0 0 1-1.038.311H61.48a1.89 1.89 0 0 1-.492.049 4.918 4.918 0 0 1-4.741-5.059 4.92 4.92 0 0 1 4.331-4.711c.182-.058.374-.089.571-.089h23.272c3.624 0 6.572-2.944 6.572-6.563 0-3.625-2.948-6.576-6.572-6.576H50.583c-18.603 0-25.448 7.006-32.068 13.779-.62.635-1.235 1.265-1.856 1.885-.03.029-.061.059-.093.087L3.133 95.105a1.891 1.891 0 0 1-2.487-2.848l13.385-11.691c.595-.597 1.186-1.201 1.78-1.809 6.833-6.993 14.578-14.918 34.771-14.918h33.839c5.708 0 10.352 4.645 10.352 10.355 0 5.703-4.644 10.344-10.352 10.344H61.712a1.87 1.87 0 0 1-.53.056 1.123 1.123 0 0 0-1.158 1.089c-.016.533.354 1 .858 1.124.088-.012.177-.019.267-.019h31.02c3.534-2.327 25.746-16.977 29.146-19.809.028-.023.056-.045.086-.067 4.746-3.511 12.116-4.46 16.234.029 4.081 4.448 3.926 10.539-.368 14.479l-.069.062c-3.836 3.191-53.471 37.713-55.582 39.182a12.501 12.501 0 0 1-9.493 2.099l-40.461-7.356a2.158 2.158 0 0 0-1.755.477l-26.81 22.27a1.88 1.88 0 0 1-1.206.436"/></symbol><symbol viewBox="327.123 180.157 36.81 36.81" id="form-select-anchor" xmlns="http://www.w3.org/2000/svg"><path d="M363.935 182.456l-18.406 32.212-18.407-32.212h36.813z"/></symbol><symbol viewBox="0 0 128 128" id="history" xmlns="http://www.w3.org/2000/svg"><path fill="#F8CDCD" d="M117.008 63.999c0 29.276-23.732 53.008-53.008 53.008S10.992 93.275 10.992 63.999c0-29.275 23.733-53.008 53.008-53.008s53.008 23.733 53.008 53.008"/><path fill="#CF171B" d="M43.69 49.219c-.153 0-.296.013-.422.032-.881.135-1.721.669-2.306 1.466-.537.732-.795 1.592-.727 2.421.062.76.398 1.4.946 1.802l.025.019 14.97 11.547.067.539c.486 3.932 3.821 6.897 7.757 6.897 4.334 0 7.86-3.527 7.86-7.861 0-.024-.01-.098-.019-.151a5.23 5.23 0 0 1-.036-.336l-.033-.523.338-.4 21.331-25.236c.551-.617.843-1.399.8-2.144-.022-.393-.151-.952-.63-1.378-.417-.371-.988-.529-1.615-.449-.693.089-1.354.454-1.865 1.027l-.022.024-21.617 23.093-.877-.461c-2.436-1.277-5.091-1.22-7.459.123l-.713.404-14.391-10.022a2.262 2.262 0 0 0-1.362-.433"/><path fill="#CF171B" d="M6.413 22.364l5.623 4.202-1.363 2.05A63.715 63.715 0 0 0 0 63.999c.004 35.286 28.714 63.997 64 64 35.286-.004 63.996-28.715 64-64C127.996 28.714 99.286.004 63.999 0a2.687 2.687 0 0 0-2.683 2.684A2.687 2.687 0 0 0 64 5.368c15.654.002 30.377 6.101 41.458 17.172 11.073 11.08 17.172 25.804 17.174 41.459-.002 15.654-6.101 30.377-17.173 41.459-11.082 11.073-25.805 17.17-41.459 17.174-15.656-.004-30.379-6.102-41.458-17.174C11.469 94.376 5.371 79.654 5.368 64c.003-11.368 3.27-22.398 9.448-31.897l1.514-2.327 6.312 4.716 4.988-23.598-21.217 11.47z"/></symbol><symbol viewBox="0 0 129.563 125.104" id="mail" xmlns="http://www.w3.org/2000/svg"><path fill="#FFF" d="M23.88 32.93v23.8L6.53 44.81zM122.921 44.89L105.98 56.52V33.16zM100.91 13.68v46.33l-36.119 24.8-36.11-24.8V13.68zM124.771 49v69.03L76.95 81.94z"/><path fill="#FFF" d="M120.561 120.63H9.28L56.65 84.7l6.59 4.55c1.14.81 1.92.81 3.08 0l6.59-4.55 47.651 35.93zM52.641 81.94L4.82 118.23V49z"/><path fill="#CF171B" d="M129.561 44.79v77.42c0 1.76-.98 2.87-2.55 2.89H2.3c-1.13-.1-2.3-1.01-2.3-2.35V44.81c0-.68.76-1.57 1.93-2.25l21.93-15.01V11.33c0-1.14.97-2.36 2.53-2.36h24.57L63.5.37c.8-.49 2.08-.49 2.81-.02l12.56 8.62h24.58c1.221 0 2.53.95 2.53 2.36v16.4l21.6 14.77c1.231.88 1.981 1.75 1.981 2.29zm-4.79 73.24V49L76.95 81.94l47.821 36.09zM105.98 56.52l16.94-11.63-16.94-11.73v23.36zm-96.7 64.11h111.28L72.91 84.7l-6.59 4.55c-1.16.81-1.94.81-3.08 0l-6.59-4.55-47.37 35.93zm91.63-60.62V13.68H28.681v46.33l36.11 24.8 36.119-24.8zM58.75 8.95h12.06L64.8 4.77l-6.05 4.18zM4.82 118.23l47.82-36.29L4.82 49v69.23zm19.06-61.5v-23.8L6.53 44.81l17.35 11.92z"/><path fill="#F8CDCD" d="M86.056 26.529H43.834c-1.406 0-2.594 1.019-2.594 2.225s1.188 2.225 2.594 2.225h42.221c1.405 0 2.595-1.019 2.595-2.225s-1.189-2.225-2.594-2.225M86.056 40.583H43.834c-1.406 0-2.594 1.019-2.594 2.225s1.188 2.225 2.594 2.225h42.221c1.405 0 2.595-1.019 2.595-2.225s-1.189-2.225-2.594-2.225M78.318 54.638H43.835c-1.407 0-2.595 1.019-2.595 2.225s1.188 2.225 2.595 2.225h34.483c1.406 0 2.596-1.019 2.596-2.225s-1.189-2.225-2.596-2.225"/></symbol><symbol viewBox="0 0 114.893 85.917" id="message" xmlns="http://www.w3.org/2000/svg"><path fill="#FFF" d="M100.452 68.794c-3.653 4.518-7.992 8.22-12.55 10.705-2.069 1.127-5.487 2.683-7.626 3.328l-1.959.59 1.053-1.752c1.057-1.765 2.123-4.309 2.11-5.783.037-2.239-1.008-4.262-3.022-5.853-2.025-1.621-4.773-2.438-8.164-2.438H35.05c-8.688 0-16.862-3.385-23.016-9.531C5.89 51.907 2.503 43.731 2.5 35.045c.005-8.688 3.39-16.861 9.534-23.011C18.187 5.885 26.36 2.5 35.05 2.5h44.794c8.69 0 16.862 3.385 23.017 9.534 6.145 6.15 9.529 14.323 9.532 23.011.014 12.071-4.337 24.371-11.941 33.749"/><path fill="#CF171B" d="M78.317 85.917a2.501 2.501 0 0 1-2.143-3.789l1.054-1.752c1.038-1.735 1.759-3.752 1.753-4.475.023-1.51-.674-2.805-2.072-3.908-1.582-1.267-3.803-1.902-6.615-1.902H35.05c-9.354 0-18.156-3.646-24.783-10.262C3.65 53.201.005 44.401 0 35.046c.005-9.359 3.65-18.157 10.265-24.779C16.89 3.646 25.692 0 35.05 0h44.794c9.356 0 18.16 3.646 24.784 10.266 6.615 6.623 10.261 15.421 10.265 24.778.015 12.631-4.54 25.506-12.497 35.323-3.859 4.771-8.457 8.688-13.297 11.327-2.156 1.175-5.729 2.81-8.1 3.526l-1.961.591c-.237.071-.48.106-.721.106M35.05 5c-8.023 0-15.569 3.126-21.25 8.803C8.13 19.479 5.004 27.024 5 35.046c.004 8.019 3.13 15.566 8.802 21.247 5.681 5.674 13.228 8.799 21.248 8.799h35.244c3.979 0 7.25 1.005 9.727 2.988 2.598 2.049 4.01 4.84 3.961 7.844.006.89-.229 1.942-.59 3.006a52.534 52.534 0 0 0 3.314-1.625c4.27-2.329 8.351-5.815 11.802-10.081l.002-.002c7.247-8.941 11.396-20.668 11.383-32.173-.003-8.025-3.129-15.569-8.801-21.247C95.413 8.126 87.866 5 79.844 5H35.05z"/><path fill="#F8CDCD" d="M29.433 28.038a7.003 7.003 0 0 0-7.006 7.006 7.003 7.003 0 0 0 7.006 7.007 7.003 7.003 0 0 0 7.003-7.007 7.003 7.003 0 0 0-7.003-7.006M57.447 28.038a7.006 7.006 0 0 0-7.006 7.006 7.006 7.006 0 1 0 14.012 0 7.006 7.006 0 0 0-7.006-7.006M85.46 28.038a7.003 7.003 0 0 0-7.002 7.006 7.003 7.003 0 0 0 7.002 7.007 7.003 7.003 0 0 0 7.006-7.007 7.003 7.003 0 0 0-7.006-7.006"/></symbol><symbol viewBox="0 0 99.866 118.625" id="office" xmlns="http://www.w3.org/2000/svg"><path fill="#FFF" d="M89.693 105.935H3a3 3 0 0 1-3-3V3c0-1.649 1.35-3 3-3h86.693c1.649 0 3 1.351 3 3v99.935a3 3 0 0 1-3 3"/><path fill="#CF171B" d="M86.073 4.415c1.195 0 2.207 1.011 2.207 2.207v92.692a2.21 2.21 0 0 1-2.207 2.208H6.621a2.21 2.21 0 0 1-2.207-2.208V6.622c0-1.196 1.011-2.207 2.207-2.207h79.452m0-4.415H6.621C2.979 0 0 2.979 0 6.622v92.692a6.62 6.62 0 0 0 6.621 6.621h79.452a6.621 6.621 0 0 0 6.621-6.621V6.622C92.694 2.979 89.713 0 86.073 0"/><path fill="#CF171B" d="M77.245 111.556c-9.185 0-16.656-7.472-16.656-16.655s7.472-16.656 16.656-16.656c9.184 0 16.655 7.473 16.655 16.656s-7.472 16.655-16.655 16.655"/><path fill="#CF171B" d="M77.245 79.245c8.633 0 15.655 7.023 15.655 15.656 0 8.632-7.022 15.655-15.655 15.655s-15.656-7.023-15.656-15.655c-.001-8.633 7.023-15.656 15.656-15.656m0-2c-9.752 0-17.656 7.905-17.656 17.656s7.904 17.655 17.656 17.655c9.75 0 17.655-7.904 17.655-17.655s-7.905-17.656-17.655-17.656"/><path fill="#CF171B" d="M97.659 118.625a2.208 2.208 0 0 1-1.561-.646l-8.828-8.828a2.208 2.208 0 0 1 0-3.121 2.208 2.208 0 0 1 3.121 0l8.828 8.828a2.208 2.208 0 0 1-1.56 3.767"/><path fill="#F8CDCD" d="M41.932 19.863h35.312v4.414H41.932zM41.932 28.69h35.312v4.414H41.932zM15.449 17.657h17.656v17.656H15.449z"/><path fill="#CF171B" d="M25.38 32.001a2.202 2.202 0 0 1-1.561-.646l-5.517-5.518a2.207 2.207 0 1 1 3.121-3.121l3.957 3.957 8.371-8.371a2.207 2.207 0 1 1 3.121 3.121l-9.932 9.932a2.195 2.195 0 0 1-1.56.646"/><path fill="#F8CDCD" d="M41.932 46.347h35.312v4.414H41.932zM41.932 55.174h35.312v4.414H41.932zM15.449 44.14h17.656v17.656H15.449z"/><path fill="#CF171B" d="M25.38 58.485a2.202 2.202 0 0 1-1.561-.646l-5.517-5.518a2.207 2.207 0 1 1 3.121-3.121l3.957 3.957 8.371-8.371a2.207 2.207 0 1 1 3.121 3.121l-9.932 9.932a2.195 2.195 0 0 1-1.56.646"/><path fill="#F8CDCD" d="M41.933 72.831h22.07v4.414h-22.07zM41.933 81.659h13.242v4.414H41.933zM15.449 70.624h17.656V88.28H15.449z"/><path fill="#CF171B" d="M25.38 84.969a2.206 2.206 0 0 1-1.561-.646l-5.517-5.518a2.207 2.207 0 1 1 3.121-3.121l3.957 3.957 8.371-8.371a2.207 2.207 0 1 1 3.121 3.121l-9.932 9.932c-.431.43-.996.646-1.56.646"/></symbol><symbol viewBox="0 0 142 102" id="organization" xmlns="http://www.w3.org/2000/svg"><path fill="#CF171B" d="M87 16c0 8.836-7.164 16-16 16s-16-7.164-16-16S62.164 0 71 0s16 7.164 16 16M24 89.75c0 6.627-5.373 12-12 12s-12-5.373-12-12 5.373-12 12-12 12 5.373 12 12M83 89.75c0 6.627-5.373 12-12 12s-12-5.373-12-12 5.373-12 12-12 12 5.373 12 12M142 90c0 6.627-5.373 12-12 12s-12-5.373-12-12 5.373-12 12-12 12 5.373 12 12"/><path fill="#F8CDCD" d="M132 68.5h-4V53H14v15.5h-4V49h122z"/><path fill="#F8CDCD" d="M69 41.5h4v27h-4z"/></symbol><symbol viewBox="0 0 92.125 112.152" id="pdf" xmlns="http://www.w3.org/2000/svg"><path fill="#FFF" d="M2.503 109.648V2.503h68.04l19.078 19.544v87.601z"/><path fill="#CF171B" d="M69.488 5.007l17.63 18.06v84.079H5.007V5.007h64.481zM71.598 0H0v112.152h92.125V21.029L71.598 0z"/><path fill="#F8CDCD" d="M18.025 62.585h56.077v5.008H18.025zM18.024 76.604h36.049v5.007H18.024zM18.024 90.623h16.022v5.007H18.024z"/><path fill="#CF171B" d="M24.096 51.571h-3.905V32.877h8.539c3.619 0 5.807 2.316 5.807 5.989 0 1.691-.938 5.961-5.963 5.961h-4.478v6.744zm3.619-9.973c2.916 0 2.916-2.083 2.916-2.916 0-1.823-1.015-2.578-3.436-2.578h-3.099v5.494h3.619zM39.118 32.877h8.253c6.302 0 7.603 5.362 7.603 8.902 0 4.012-1.588 9.791-7.758 9.791h-8.098V32.877zm3.827 15.464h3.801c3.178 0 4.244-3.202 4.244-6.274 0-5.519-2.629-5.963-4.295-5.963h-3.75v12.237zM63.383 51.57h-3.906V32.877h13.304v3.306h-9.398v4.218h8.228v3.307h-8.228zM89.621 23.031H69.595V3.004"/></symbol></svg>